<svg width="145" height="144" viewBox="0 0 145 144" fill="none" xmlns="http://www.w3.org/2000/svg">
<path d="M64.7117 143.241L47.4116 139.122C47.0014 139.025 46.712 138.658 46.712 138.237V118.469C47.1672 108.096 38.9724 108.809 33.9645 110.729C29.6516 112.383 19.9358 115.578 17.3223 116.433C16.9303 116.561 16.5083 116.407 16.2838 116.061L6.33872 100.729C6.02725 100.249 6.22124 99.6084 6.75316 99.3971C10.9266 97.7394 26.8751 91.5093 33.9645 90.2423C57.6384 87.3286 65.0744 102.99 65.8331 111.184V142.356C65.8331 142.944 65.2839 143.378 64.7117 143.241Z" fill="#EBEBEB"/>
<path d="M80.6122 143.241L97.9123 139.122C98.3224 139.025 98.6119 138.658 98.6119 138.237V118.469C98.1566 108.096 106.351 108.809 111.359 110.729C115.672 112.383 125.388 115.578 128.002 116.433C128.394 116.561 128.816 116.407 129.04 116.061L138.985 100.729C139.297 100.249 139.103 99.6084 138.571 99.3971C134.397 97.7394 118.449 91.5093 111.359 90.2423C87.6855 87.3286 80.2495 102.99 79.4907 111.184V142.356C79.4907 142.944 80.04 143.378 80.6122 143.241Z" fill="#EBEBEB"/>
<path d="M37.1547 7.40736L53.6853 0.849885C54.0772 0.694416 54.5246 0.828353 54.7666 1.17361L66.1135 17.3605C71.6945 26.1152 77.9955 20.8275 80.9943 16.3809C83.5769 12.5513 89.6985 4.35798 91.3478 2.15766C91.5952 1.82767 92.0293 1.71164 92.4116 1.86613L109.356 8.71224C109.887 8.92665 110.095 9.56237 109.781 10.0407C107.315 13.7936 97.8319 28.0498 92.7539 33.1566C75.0411 49.1315 59.9625 40.5756 54.6373 34.3009L36.7449 8.77638C36.4073 8.29477 36.608 7.62423 37.1547 7.40736Z" fill="#EBEBEB"/>
<path d="M24.1342 16.5343L12.3323 29.8376C12.0525 30.153 12.0258 30.6193 12.2679 30.9645L23.6147 47.1514C29.9413 55.3835 22.8217 59.5035 17.619 60.806C13.1383 61.9278 3.34842 64.8882 0.717529 65.6883C0.322962 65.8083 0.065858 66.1768 0.0806874 66.5889L0.737823 84.8522C0.758402 85.4241 1.28483 85.8372 1.84166 85.7048C6.21055 84.6666 22.8462 80.6137 29.3786 77.5818C50.4365 66.3787 47.5358 49.2863 43.4533 42.1404L25.5609 16.6159C25.2233 16.1343 24.5245 16.0943 24.1342 16.5343Z" fill="#EBEBEB"/>
<path d="M120.141 16.5343L131.943 29.8376C132.223 30.153 132.249 30.6193 132.007 30.9645L120.66 47.1514C114.334 55.3835 121.453 59.5035 126.656 60.806C131.137 61.9278 140.927 64.8882 143.558 65.6883C143.952 65.8083 144.209 66.1768 144.194 66.5889L143.537 84.8522C143.517 85.4241 142.99 85.8372 142.433 85.7048C138.065 84.6666 121.429 80.6137 114.897 77.5818C93.8387 66.3787 96.7393 49.2863 100.822 42.1404L118.714 16.6159C119.052 16.1343 119.751 16.0943 120.141 16.5343Z" fill="#EBEBEB"/>
<path d="M71.9704 53.7187C72.2521 53.556 72.5992 53.556 72.881 53.7187L86.9528 61.843C87.2345 62.0057 87.408 62.3063 87.408 62.6316V78.8803C87.408 79.2056 87.2345 79.5062 86.9528 79.6688L72.881 87.7932C72.5992 87.9558 72.2521 87.9558 71.9704 87.7932L57.8986 79.6688C57.6169 79.5062 57.4434 79.2056 57.4434 78.8803V62.6316C57.4434 62.3063 57.6169 62.0057 57.8986 61.843L71.9704 53.7187Z" fill="#EBEBEB"/>
</svg>
