<svg width="216" height="65" viewBox="0 0 216 65" fill="none" xmlns="http://www.w3.org/2000/svg">
<g clip-path="url(#clip0_561_90)">
<path d="M164.462 43.6564C163.057 43.6564 161.828 43.3466 160.776 42.7269C159.732 42.0983 158.919 41.2263 158.335 40.1108C157.752 38.9865 157.46 37.6763 157.46 36.1801C157.46 34.6131 157.748 33.2587 158.322 32.1166C158.897 30.9657 159.697 30.0804 160.723 29.4607C161.757 28.8322 162.968 28.5179 164.356 28.5179C165.797 28.5179 167.022 28.8499 168.03 29.5139C169.046 30.1778 169.807 31.1251 170.311 32.3556C170.823 33.5862 171.044 35.0514 170.974 36.7511H168.587V35.9012C168.56 34.1395 168.202 32.8248 167.512 31.9573C166.823 31.0808 165.797 30.6426 164.436 30.6426C162.977 30.6426 161.868 31.1118 161.107 32.0502C160.347 32.9886 159.967 34.3343 159.967 36.0872C159.967 37.7781 160.347 39.0883 161.107 40.0179C161.868 40.9474 162.95 41.4122 164.356 41.4122C165.302 41.4122 166.124 41.1953 166.823 40.7615C167.521 40.3277 168.069 39.7036 168.467 38.8891L170.735 39.6726C170.178 40.9386 169.338 41.9213 168.215 42.6206C167.101 43.3112 165.85 43.6564 164.462 43.6564ZM159.171 36.7511V34.8522H169.754V36.7511H159.171Z" fill="white"/>
<path d="M150.212 43.2581V28.9163H152.321V32.3822L151.976 31.9307C152.144 31.4881 152.36 31.0808 152.626 30.709C152.9 30.3372 153.205 30.0318 153.541 29.7927C153.912 29.4917 154.332 29.2616 154.8 29.1022C155.269 28.9429 155.746 28.8499 156.233 28.8233C156.719 28.7879 157.174 28.8189 157.599 28.9163V31.134C157.104 31.0012 156.56 30.9657 155.967 31.0277C155.375 31.0897 154.827 31.3066 154.323 31.6784C153.864 32.006 153.505 32.4044 153.249 32.8736C153.001 33.3428 152.829 33.8518 152.732 34.4007C152.635 34.9407 152.586 35.494 152.586 36.0606V43.2581H150.212Z" fill="white"/>
<path d="M140.956 43.6564C139.886 43.6564 138.989 43.4617 138.264 43.0722C137.548 42.6738 137.004 42.1514 136.633 41.5052C136.27 40.8589 136.089 40.1507 136.089 39.3805C136.089 38.628 136.23 37.9773 136.513 37.4284C136.805 36.8707 137.212 36.4103 137.733 36.0473C138.255 35.6755 138.878 35.3834 139.603 35.1709C140.284 34.985 141.044 34.8256 141.884 34.6928C142.733 34.5512 143.59 34.4228 144.457 34.3077C145.323 34.1926 146.132 34.082 146.884 33.9757L146.035 34.4671C146.062 33.1923 145.805 32.2494 145.266 31.6385C144.735 31.0277 143.816 30.7223 142.507 30.7223C141.641 30.7223 140.881 30.9215 140.226 31.3199C139.581 31.7094 139.126 32.3468 138.86 33.2321L136.619 32.5548C136.964 31.2977 137.632 30.3106 138.622 29.5935C139.612 28.8764 140.916 28.5179 142.534 28.5179C143.833 28.5179 144.948 28.7525 145.876 29.2217C146.813 29.682 147.485 30.3814 147.891 31.3199C148.095 31.7625 148.223 32.245 148.276 32.7673C148.329 33.2808 148.356 33.8208 148.356 34.3874V43.258H146.26V39.8187L146.751 40.1374C146.212 41.2971 145.456 42.1736 144.483 42.7667C143.52 43.3599 142.344 43.6564 140.956 43.6564ZM141.314 41.6778C142.162 41.6778 142.896 41.5273 143.515 41.2263C144.143 40.9164 144.647 40.5136 145.027 40.0179C145.407 39.5132 145.655 38.9644 145.77 38.3712C145.902 37.9286 145.973 37.4372 145.982 36.8972C146 36.3483 146.008 35.9278 146.008 35.6357L146.831 35.9942C146.061 36.1004 145.306 36.2023 144.563 36.2996C143.82 36.397 143.117 36.5032 142.454 36.6183C141.791 36.7246 141.194 36.853 140.664 37.0034C140.275 37.1274 139.908 37.2867 139.563 37.4815C139.228 37.6763 138.953 37.9286 138.741 38.2384C138.538 38.5394 138.436 38.9157 138.436 39.3672C138.436 39.7567 138.533 40.1285 138.728 40.4827C138.931 40.8368 139.241 41.1245 139.656 41.3458C140.08 41.5671 140.633 41.6778 141.314 41.6778Z" fill="white"/>
<path d="M121.66 43.2581L117.283 28.903L119.631 28.9163L122.827 39.407L126.049 28.9163H128.131L131.34 39.407L134.55 28.9163H136.884L132.507 43.2581H130.545L127.084 32.3557L123.622 43.2581H121.66Z" fill="white"/>
<path d="M109.871 43.6564C108.802 43.6564 107.904 43.4617 107.179 43.0722C106.463 42.6738 105.919 42.1514 105.548 41.5052C105.186 40.8589 105.004 40.1507 105.004 39.3805C105.004 38.628 105.146 37.9773 105.429 37.4284C105.721 36.8707 106.127 36.4103 106.649 36.0473C107.171 35.6755 107.794 35.3834 108.519 35.1709C109.2 34.985 109.96 34.8256 110.8 34.6928C111.648 34.5512 112.506 34.4228 113.372 34.3077C114.239 34.1926 115.048 34.082 115.799 33.9757L114.95 34.4671C114.977 33.1923 114.721 32.2494 114.181 31.6385C113.651 31.0277 112.731 30.7223 111.423 30.7223C110.557 30.7223 109.796 30.9215 109.142 31.3199C108.497 31.7094 108.041 32.3468 107.776 33.2321L105.535 32.5548C105.88 31.2977 106.547 30.3106 107.537 29.5935C108.527 28.8764 109.832 28.5179 111.45 28.5179C112.749 28.5179 113.863 28.7525 114.791 29.2217C115.729 29.682 116.4 30.3814 116.807 31.3199C117.01 31.7625 117.139 32.245 117.192 32.7673C117.245 33.2808 117.271 33.8208 117.271 34.3874V43.258H115.176V39.8187L115.667 40.1374C115.127 41.2971 114.371 42.1736 113.399 42.7667C112.435 43.3599 111.26 43.6564 109.871 43.6564ZM110.23 41.6778C111.078 41.6778 111.812 41.5273 112.431 41.2263C113.059 40.9164 113.562 40.5136 113.943 40.0179C114.323 39.5132 114.57 38.9644 114.685 38.3712C114.818 37.9286 114.889 37.4372 114.897 36.8972C114.915 36.3483 114.924 35.9278 114.924 35.6357L115.746 35.9942C114.977 36.1004 114.221 36.2023 113.478 36.2996C112.736 36.397 112.033 36.5032 111.37 36.6183C110.707 36.7246 110.11 36.853 109.58 37.0034C109.191 37.1274 108.824 37.2867 108.479 37.4815C108.143 37.6763 107.869 37.9286 107.657 38.2384C107.453 38.5394 107.352 38.9157 107.352 39.3672C107.352 39.7567 107.449 40.1285 107.643 40.4827C107.847 40.8368 108.156 41.1245 108.572 41.3458C108.996 41.5671 109.549 41.6778 110.23 41.6778Z" fill="white"/>
<path d="M101.052 43.2581V23.7373H103.412V43.2581H101.052Z" fill="white"/>
<path d="M92.9142 43.6564C91.5085 43.6564 90.2796 43.3466 89.2275 42.7269C88.1844 42.0983 87.371 41.2263 86.7874 40.1108C86.2041 38.9865 85.9121 37.6763 85.9121 36.1801C85.9121 34.6131 86.1996 33.2587 86.7742 32.1166C87.3489 30.9657 88.1488 30.0804 89.1746 29.4607C90.2088 28.8322 91.42 28.5179 92.8081 28.5179C94.2491 28.5179 95.4737 28.8499 96.4816 29.5139C97.4981 30.1778 98.2585 31.1251 98.7623 32.3556C99.2753 33.5862 99.4961 35.0514 99.4255 36.7511H97.0383V35.9012C97.012 34.1395 96.6539 32.8248 95.9643 31.9573C95.2748 31.0808 94.2491 30.6426 92.8876 30.6426C91.429 30.6426 90.3194 31.1118 89.559 32.0502C88.7989 32.9886 88.4186 34.3343 88.4186 36.0872C88.4186 37.7781 88.7989 39.0883 89.559 40.0179C90.3194 40.9474 91.4024 41.4122 92.8081 41.4122C93.754 41.4122 94.5763 41.1953 95.2748 40.7615C95.973 40.3277 96.5214 39.7036 96.9192 38.8891L99.1868 39.6726C98.6298 40.9386 97.79 41.9213 96.6671 42.6206C95.553 43.3112 94.3023 43.6564 92.9142 43.6564ZM87.6229 36.7511V34.8522H98.2056V36.7511H87.6229Z" fill="white"/>
<path d="M77.993 43.6565C76.6582 43.6565 75.5133 43.3245 74.5584 42.6605C73.6036 41.9877 72.8653 41.0802 72.3438 39.9382C71.8311 38.7962 71.5745 37.5081 71.5745 36.0739C71.5745 34.6397 71.8311 33.3516 72.3438 32.2096C72.8653 31.0675 73.6036 30.169 74.5584 29.5139C75.5133 28.8499 76.6537 28.5179 77.9798 28.5179C79.3325 28.5179 80.4684 28.8455 81.388 29.5006C82.3075 30.1557 83.0013 31.0543 83.47 32.1963C83.9475 33.3383 84.1862 34.6309 84.1862 36.0739C84.1862 37.4992 83.9475 38.7873 83.47 39.9382C83.0013 41.0802 82.3075 41.9877 81.388 42.6605C80.4684 43.3245 79.337 43.6565 77.993 43.6565ZM78.2849 41.4919C79.2485 41.4919 80.0397 41.2617 80.6587 40.8014C81.2776 40.3322 81.7329 39.6903 82.0246 38.8759C82.3252 38.0525 82.4754 37.1185 82.4754 36.0739C82.4754 35.0115 82.3252 34.0775 82.0246 33.2719C81.7329 32.4575 81.2818 31.8245 80.6718 31.373C80.0619 30.9126 79.2883 30.6825 78.351 30.6825C77.3785 30.6825 76.5741 30.9215 75.9375 31.3995C75.3099 31.8776 74.8414 32.5239 74.5318 33.3383C74.2312 34.1528 74.081 35.0647 74.081 36.0739C74.081 37.092 74.2357 38.0127 74.545 38.836C74.8546 39.6505 75.3186 40.2967 75.9375 40.7748C76.5651 41.2529 77.3477 41.4919 78.2849 41.4919ZM82.4754 43.2581V32.7009H82.2101V24.1357H84.5841V43.2581H82.4754Z" fill="white"/>
<path d="M169.291 25.6452V25.5686L170.83 22.9742H169.426V22.4022H171.9V22.4788L170.371 25.0686H171.855V25.6452H169.291Z" fill="white"/>
<path d="M166.086 25.6452L167.076 22.4022H167.989L168.978 25.6452H168.349L167.467 22.785H167.584L166.716 25.6452H166.086ZM166.68 24.9696V24.3975H168.389V24.9696H166.68Z" fill="white"/>
<path fill-rule="evenodd" clip-rule="evenodd" d="M56.9836 21H45V45H56.9836C63.602 45 68.9673 39.6274 68.9673 33C68.9673 26.3726 63.602 21 56.9836 21ZM58.1073 41.5806C57.832 41.4994 57.5495 41.1711 57.4895 40.857C57.4506 40.6522 57.4965 40.511 57.7896 39.9427C58.9759 37.6481 59.4913 35.537 59.4913 32.9777C59.4913 30.503 59.0359 28.5756 57.9026 26.2669C57.6589 25.7726 57.4612 25.3102 57.4612 25.2431C57.4612 24.996 57.666 24.6394 57.8884 24.5018C58.1921 24.3111 58.704 24.3465 58.9511 24.5759C59.0465 24.6642 59.2901 25.0666 59.4948 25.469C60.3069 27.0611 60.8612 28.8086 61.1365 30.6266C61.306 31.7527 61.3413 33.8849 61.2036 34.9157C60.953 36.8149 60.4516 38.5129 59.6467 40.1721C59.1594 41.1747 58.8558 41.5877 58.6016 41.5877C58.5522 41.5877 58.4675 41.6018 58.418 41.6159C58.3686 41.6301 58.2274 41.6159 58.1073 41.5806ZM54.8063 39.8544C54.3826 39.7309 54.0754 39.2084 54.199 38.8201C54.2272 38.7247 54.4285 38.2905 54.6439 37.8528C55.5512 35.9995 55.929 34.0155 55.7454 32.0669C55.5936 30.4642 55.3076 29.4546 54.5838 27.979C54.1002 26.987 54.0754 26.8352 54.3579 26.4328C54.6262 26.0515 55.297 25.9915 55.6465 26.3127C55.8901 26.5351 56.6492 28.1202 56.9422 29.0168C57.9096 31.9822 57.7613 35.1699 56.5221 38.0823C55.8831 39.5755 55.4347 40.038 54.8063 39.8544ZM50.852 37.4292C50.9156 37.7081 51.1415 37.987 51.4028 38.1034C51.5193 38.1564 51.717 38.1846 51.8406 38.1741C52.2466 38.1211 52.4478 37.9022 52.8539 37.0797C53.56 35.6429 53.8142 34.5733 53.8177 33.0165C53.8212 31.5021 53.5494 30.3195 52.8856 28.9568C52.4549 28.0707 52.2042 27.8272 51.7205 27.8272C51.4346 27.8272 51.3463 27.8589 51.1415 28.0531C50.7285 28.445 50.7391 28.6426 51.2298 29.6346C52.3454 31.8974 52.3349 34.125 51.191 36.4407C50.8803 37.0691 50.8132 37.2597 50.852 37.4292ZM48.2253 36.4725C48.017 36.3878 47.7805 36.1054 47.7098 35.8583C47.6322 35.5829 47.6957 35.3641 48.0064 34.8522C48.4089 34.192 48.5007 33.839 48.5007 32.9777C48.5007 32.1163 48.4089 31.7598 48.0064 31.1031C47.8687 30.8807 47.7346 30.6125 47.7028 30.5066C47.5721 30.0723 47.9358 29.5393 48.423 29.4475C48.8361 29.3698 49.1185 29.5534 49.4998 30.1465C50.5978 31.8621 50.5978 34.1497 49.4998 35.8512C49.1115 36.4478 48.6807 36.6596 48.2253 36.4725Z" fill="white"/>
</g>
<defs>
<clipPath id="clip0_561_90">
<rect width="127" height="24" fill="white" transform="translate(45 21)"/>
</clipPath>
</defs>
</svg>
